<?xml version="1.0" encoding="UTF-8" standalone="no"?>
<svg
   xmlns:rdf="http://www.w3.org/1999/02/22-rdf-syntax-ns#"
   xmlns:svg="http://www.w3.org/2000/svg"
   xmlns="http://www.w3.org/2000/svg"
   id="svg875"
   version="1.1"
   height="48"
   width="48">
  <path
     fill-rule="evenodd"
     clip-rule="evenodd"
     d="m 17.98883,4.6638718 c 0,-1.45803 1.18197,-2.64 2.64,-2.64 9.720252,0 17.6,7.8797891 17.6,17.6000002 0,1.45803 -1.181971,2.64 -2.64,2.64 -1.45803,0 -2.64,-1.18197 -2.64,-2.64 0,-6.804193 -5.515808,-12.3200002 -12.32,-12.3200002 -1.45803,0 -2.64,-1.18197 -2.64,-2.64 z"
     fill="#a0a0a0" />
  <path
     fill-rule="evenodd"
     clip-rule="evenodd"
     d="m 30.306548,43.383872 c 0,1.458029 -1.18197,2.64 -2.64,2.64 -9.72017,0 -17.599992,-7.879748 -17.599992,-17.6 0,-1.45803 1.181963,-2.64 2.639992,-2.64 1.45803,0 2.64,1.18197 2.64,2.64 0,6.804111 5.515889,12.32 12.32,12.32 1.45803,0 2.64,1.18197 2.64,2.64 z"
     fill="#a0a0a0" />
  <path
     fill-rule="evenodd"
     clip-rule="evenodd"
     d="m 4.7876898,30.183953 c -1.45803,0 -2.64,-1.18197 -2.64,-2.64 0,-9.720251 7.8797882,-17.6000241 17.5999992,-17.6000241 1.45803,0 2.64,1.1819951 2.64,2.6400241 0,1.45803 -1.18197,2.64 -2.64,2.64 -6.804111,0 -12.3199992,5.515808 -12.3199992,12.32 0,1.45803 -1.18197,2.64 -2.64,2.64 z"
     fill="#a0a0a0" />
  <path
     fill-rule="evenodd"
     clip-rule="evenodd"
     d="m 43.507689,17.863791 c 1.45803,0 2.64,1.18197 2.64,2.64 0,9.720251 -7.879748,17.599999 -17.6,17.599999 -1.45803,0 -2.64,-1.18197 -2.64,-2.64 0,-1.458029 1.18197,-2.64 2.64,-2.64 6.804111,0 12.32,-5.515807 12.32,-12.319999 0,-1.45803 1.18197,-2.64 2.64,-2.64 z"
     fill="#a0a0a0" />
</svg>
