<svg
   xmlns:rdf="http://www.w3.org/1999/02/22-rdf-syntax-ns#"
   xmlns:svg="http://www.w3.org/2000/svg"
   xmlns="http://www.w3.org/2000/svg"
   height="48"
   width="48">
  <path
     d="M 24.72852,44.539272 C 19.928029,43.196594 15.612523,38.649361 11.59776,30.703304 6.9022742,21.410387 5.5585217,13.264243 7.917877,8.3998319 8.8881472,6.3998187 11.198126,5.1790267 13.392359,5.50695 c 4.478287,0.6687025 6.011401,4.1022972 5.859578,13.121077 -0.03539,2.111337 -0.0043,3.772043 0.06704,3.69044 0.07235,-0.08148 0.247381,-0.527642 0.38889,-0.991586 0.141281,-0.46394 0.896241,-2.095318 1.677559,-3.625271 1.752,-3.431661 1.873041,-4.01182 1.160258,-5.556099 -0.547232,-1.1862 -0.703067,-2.7730978 -0.33045,-3.3661018 0.140022,-0.2228881 0.563893,-0.3163194 1.435464,-0.3163194 h 1.236625 L 26.283785,6.942206 c 1.430186,-1.5577858 3.639394,-3.1864221 4.905101,-3.615563 1.105027,-0.3747354 3.137935,-0.2895402 4.098502,0.1716565 L 36.123759,3.8998198 35.392005,3.756415 c -2.935481,-0.5757033 -5.402787,0.2781587 -7.74105,2.6788344 -3.020458,3.1012338 -4.962052,8.0326966 -3.937582,10.0025476 0.237873,0.45761 0.236609,0.458027 -0.210469,0.05767 -0.247365,-0.221404 -0.487531,-0.363959 -0.533743,-0.316303 -0.464997,0.479538 -2.547859,5.973422 -3.16681,8.351764 -0.795015,3.056108 -0.935879,7.122952 -0.330442,9.537976 0.564324,2.250725 1.647621,4.464785 2.878747,5.884228 0.530154,0.611349 1.001689,1.073392 1.047658,1.026999 0.04616,-0.04669 -0.157751,-0.976391 -0.45276,-2.066214 -0.656684,-2.424527 -0.874105,-5.320133 -0.526362,-7.003392 l 0.25326,-1.226069 0.629279,1.015179 c 1.281937,2.068327 4.372632,4.761715 5.792908,5.04852 1.262992,0.254531 1.29271,-1.379177 0.0835,-4.560756 -0.800719,-2.10712 -1.083712,-3.319689 -1.23029,-5.272031 -0.172498,-2.296718 0.192545,-3.82224 1.590053,-6.643421 1.181986,-2.386118 1.256027,-2.973024 0.629465,-4.989032 -0.228597,-0.735365 -0.41669,-1.364836 -0.418182,-1.399208 -0.002,-0.03437 0.440112,0.27835 0.981029,0.69528 1.67566,1.290153 3.548944,2.084771 4.945597,2.097423 1.136657,0.01015 1.266566,-0.03924 1.803036,-0.687068 0.318231,-0.383995 0.776273,-1.332964 1.018142,-2.108809 l 0.439475,-1.410799 -0.07104,1.522981 -0.07132,1.523008 0.580981,-0.417156 c 0.319476,-0.229636 0.833602,-0.914799 1.14234,-1.522978 l 0.561374,-1.105649 -0.09986,1.408253 c -0.07864,1.108399 -0.312955,1.868009 -1.100809,3.568134 -1.182001,2.549556 -1.241033,3.28892 -0.419648,5.238091 0.801352,1.901949 1.357436,4.918412 1.499361,8.132244 0.10826,2.447912 0.06299,3.008655 -0.422178,5.236197 -0.635389,2.916067 -0.714894,5.007385 -0.206655,5.432939 0.96857,0.810629 0.602476,2.043876 -0.771636,2.598499 -1.116406,0.450429 -3.178838,0.468574 -4.348384,0.03812 -1.280677,-0.471102 -2.175456,-0.420705 -3.371584,0.19065 -0.942003,0.481437 -1.254313,0.525509 -3.59974,0.508216 -1.4127,-0.01015 -2.991785,-0.137074 -3.509291,-0.281944 z M 37.193332,19.863993 c 0.03392,-0.08913 0.424897,-1.672347 0.503346,-1.705766 0.06825,-0.02897 -0.179082,1.483582 -0.10734,1.511329 0.364205,0.141075 0.829417,-0.590465 1.354491,-2.130098 0.594709,-1.743574 0.552522,-1.950252 -0.258532,-1.260676 -0.872203,0.741887 -1.838889,1.146792 -2.738093,1.146792 h -0.712771 l 0.1065,1.00167 c 0.05862,0.55083 0.19149,1.167653 0.29523,1.370759 0.231971,0.452957 1.391191,0.502091 1.557155,0.06594 z M 36.457977,10.120834 C 35.344541,9.5611622 34.495522,8.5506005 34.696075,8.0234066 34.997616,7.2311151 38.580922,6.249671 39.660658,6.6636425 c 0.658575,0.2526327 0.693375,0.8072453 0.128626,2.0617793 -0.48481,1.0771974 -1.308312,1.9519452 -1.837416,1.9519452 -0.212561,0 -0.884853,-0.250554 -1.493891,-0.556533 z m -6.88802,-2.1594289 c -0.30324,-1.0206685 -0.305368,-0.98525 0.08711,-1.3812747 0.471118,-0.4749091 1.068107,-0.4112207 2.153299,0.23048 l 0.950676,0.5617939 -0.797778,0.2783738 C 31.524397,7.8040923 30.860773,8.1193526 30.48835,8.3515345 l -0.677152,0.4219717 z"
     style="fill:#a0a0a0;fill-opacity:1;stroke-width:0.210887"/>
</svg>
