<?xml version="1.0" encoding="UTF-8" standalone="no"?>
<svg
   xmlns:dc="http://purl.org/dc/elements/1.1/"
   xmlns:cc="http://creativecommons.org/ns#"
   xmlns:rdf="http://www.w3.org/1999/02/22-rdf-syntax-ns#"
   xmlns:svg="http://www.w3.org/2000/svg"
   xmlns="http://www.w3.org/2000/svg"
   xmlns:sodipodi="http://sodipodi.sourceforge.net/DTD/sodipodi-0.dtd"
   xmlns:inkscape="http://www.inkscape.org/namespaces/inkscape"
   inkscape:version="1.0 (4035a4fb49, 2020-05-01)"
   sodipodi:docname="electron.svg"
   id="svg1982"
   version="1.1"
   height="48"
   width="48">
  <metadata
     id="metadata1986">
    <rdf:RDF>
      <cc:Work
         rdf:about="">
        <dc:format>image/svg+xml</dc:format>
        <dc:type
           rdf:resource="http://purl.org/dc/dcmitype/StillImage" />
        <dc:title></dc:title>
      </cc:Work>
    </rdf:RDF>
  </metadata>
  <sodipodi:namedview
     inkscape:current-layer="svg1982"
     inkscape:window-maximized="1"
     inkscape:window-y="26"
     inkscape:window-x="0"
     inkscape:cy="55.055508"
     inkscape:cx="-74.841954"
     inkscape:zoom="5.4137863"
     showgrid="false"
     id="namedview1984"
     inkscape:window-height="1166"
     inkscape:window-width="1912"
     inkscape:pageshadow="2"
     inkscape:pageopacity="0"
     guidetolerance="10"
     gridtolerance="10"
     objecttolerance="10"
     borderopacity="1"
     bordercolor="#666666"
     pagecolor="#ffffff" />
  <defs
     id="acyl-settings">
    <linearGradient
       gradientUnits="userSpaceOnUse"
       y2="46.000003"
       y1="2.0000004"
       x2="1.9999998"
       x1="1.9999998"
       id="acyl-gradient">
      <stop
         id="stop1973"
         style="stop-color:#A0A0A0;stop-opacity:1.000000"
         offset="100%" />
    </linearGradient>
    <g
       id="acyl-filter" />
    <g
       id="acyl-drawing">
      <path
         id="path-main"
         d="M 24.889828,2.0004778 C 21.392877,2.1068035 18.046952,5.0084053 14.950578,9.0479895 11.854203,13.087573 9.0061389,18.367088 6.7585732,23.658684 4.5110076,28.95028 2.8720095,34.232911 2.2615639,38.298027 c -0.3052228,2.032559 -0.3674238,3.769699 -0.057287,5.128068 0.1550685,0.679184 0.3985549,1.273095 0.8306577,1.747553 0.4321029,0.474459 1.078571,0.773139 1.7472457,0.802156 6.4913857,0.32593 13.6325937,-2.691283 19.3342767,-6.016168 2.850841,-1.662443 5.345467,-3.413974 7.189486,-4.89888 0.92201,-0.742453 1.687098,-1.39911 2.262826,-1.976741 0.575728,-0.577631 0.946806,-0.99485 1.174379,-1.547015 0.09947,-0.242759 0.08264,-0.517663 -0.04569,-0.746473 -0.128334,-0.22881 -0.354122,-0.386471 -0.613105,-0.428112 -0.667852,-0.112531 -1.152614,0.08443 -1.919106,0.315132 -0.766492,0.230701 -1.707127,0.56296 -2.778407,0.974046 -2.142559,0.822174 -4.787026,1.938723 -7.47592,3.036733 -2.688894,1.09801 -5.42756,2.169505 -7.64778,2.922139 -1.11011,0.376318 -2.08659,0.688623 -2.864337,0.859453 -0.777748,0.17083 -1.366946,0.172216 -1.4894562,0.143242 -0.00955,-1.6e-4 -0.019096,-1.6e-4 -0.028643,0 -0.038747,-0.0078 -0.00278,0.0136 -0.057287,-0.08595 -0.054505,-0.09954 -0.1513111,-0.343299 -0.1718602,-0.716211 -0.041098,-0.745823 0.1323678,-1.94155 0.4869374,-3.351865 0.709139,-2.820631 2.146385,-6.547784 3.924142,-10.198838 1.777757,-3.651054 3.898836,-7.223063 5.900535,-9.711815 1.00085,-1.244376 1.969412,-2.208992 2.80705,-2.778897 0.837639,-0.569905 1.47019,-0.697935 1.890463,-0.572968 0.03815,0.0026 0.07643,0.0026 0.114573,0 0.531555,0.08715 1.332183,0.58416 2.234183,1.489717 0.902001,0.905558 1.905742,2.196376 2.921624,3.724295 2.031763,3.055838 4.174489,7.081258 6.158325,11.058291 1.983836,3.977033 3.797304,7.905656 5.241737,10.829103 0.722216,1.461724 1.344508,2.664292 1.861819,3.523756 0.258656,0.429732 0.502896,0.784488 0.744728,1.059992 0.120915,0.137751 0.24166,0.255118 0.429651,0.372429 0.133536,0.08333 0.382175,0.08489 0.630154,0.08595 l 0,0.08595 c 0.06056,0 0.109093,-0.04291 0.17186,-0.0573 0.03565,-0.0077 0.04938,0.01232 0.08593,0 l -0.02864,-0.0573 c 0.159316,-0.04986 0.330798,-0.07313 0.42965,-0.171891 0.153527,-0.153386 0.218028,-0.310981 0.257791,-0.429726 0.07953,-0.237488 0.0862,-0.40903 0.08593,-0.601617 -5.33e-4,-0.385174 -0.07246,-0.812695 -0.17186,-1.375124 -0.198805,-1.124857 -0.561797,-2.694452 -1.088455,-4.555099 -1.053315,-3.721292 -2.711059,-8.641573 -4.726156,-13.608 C 37.998431,17.603617 35.632127,12.614144 33.110475,8.7901535 31.849649,6.8781578 30.559494,5.2562024 29.214977,4.0631641 27.87046,2.8701259 26.451139,2.0708728 24.947114,2.0004778 c -0.01909,-6.368e-4 -0.0382,-6.368e-4 -0.05729,0 l 0,0 z" />
    </g>
  </defs>
  <path
     id="path2567"
     d="M 21.737392,46.154834 C 17.592447,45.56492 14.605057,44.488223 11.682495,42.530908 6.8563145,39.298692 3.5700585,34.443607 2.2742885,28.631309 c -0.42797,-1.919704 -0.460257,-6.773911 -0.05739,-8.628474 0.672419,-3.095423 1.944738,-6.085129 3.607322,-8.476514 1.167609,-1.6794381 3.982353,-4.4462115 5.6553665,-5.5589885 7.61196,-5.06296096 17.189722,-5.13406196 24.578387,-0.182458 6.728259,4.5090245 10.366627,11.9137485 9.821581,19.9886505 -0.523652,7.757934 -5.187437,14.675039 -12.296654,18.237813 -1.394454,0.698828 -4.07159,1.580761 -5.680547,1.87135 -1.233826,0.222838 -5.261992,0.400657 -6.16496,0.272146 z m 4.286126,-5.20172 c 0.658925,-0.324387 1.2077,-0.757769 1.904982,-1.504411 1.190386,-1.274655 1.615353,-1.993504 1.389853,-2.350997 -0.291883,-0.462731 -0.646128,-0.26431 -1.467055,0.821732 -0.973223,1.287521 -1.97512,2.082415 -3.009438,2.387658 -2.389831,0.705273 -4.871171,-1.211145 -6.519519,-5.035229 -0.595544,-1.381632 -0.697341,-1.509164 -1.117013,-1.399417 -0.440587,0.115215 -0.330038,0.81122 0.360331,2.268606 0.703774,1.48568 1.300967,2.410681 2.156311,3.339931 1.835226,1.993803 4.145545,2.533524 6.301548,1.472127 z m 7.818447,-5.034126 c 0.410135,-0.07778 1.121271,-0.293119 1.580302,-0.478529 0.759635,-0.306831 0.870247,-0.318433 1.231472,-0.129166 0.510401,0.267425 1.548239,0.15824 2.053673,-0.216058 0.746906,-0.553119 1.054689,-1.181252 0.987701,-2.015725 -0.102754,-1.28 -0.98934,-2.092237 -2.283754,-2.092237 -0.784826,0 -1.281137,0.293058 -1.815365,1.071925 -0.283582,0.413439 -0.326692,0.62589 -0.280193,1.380839 l 0.05495,0.892223 -0.514426,0.205833 c -1.54637,0.618735 -4.4458,0.661543 -6.906783,0.101975 -4.77708,-1.086193 -9.998091,-3.953637 -13.575176,-7.455657 -1.127738,-1.104073 -1.622278,-1.277858 -1.717631,-0.603593 -0.05892,0.416677 0.87144,1.406531 2.772323,2.949578 3.978048,3.229196 8.746669,5.506687 13.190148,6.29961 1.353253,0.241483 4.165942,0.289405 5.222757,0.08898 z m -22.651091,-0.71435 c 1.834747,-0.936018 1.403845,-3.84169 -0.626187,-4.222525 -0.5947055,-0.111568 -0.6436345,-0.364609 -0.311618,-1.611594 0.481882,-1.809853 1.713264,-3.777413 3.61427,-5.775043 3.315587,-3.484114 8.004175,-6.292904 12.816358,-7.677889 1.605751,-0.462149 1.648769,-0.485183 1.648769,-0.88285 0,-0.391714 -0.02623,-0.407398 -0.64517,-0.385648 -0.961542,0.03379 -3.97277,1.080711 -6.118798,2.127338 -5.313628,2.591476 -9.734795,6.584947 -11.5852495,10.464508 -0.687468,1.441313 -0.934206,2.314659 -0.934206,3.306693 0,0.550628 -0.0663,0.720728 -0.375801,0.964183 -0.713364,0.561132 -0.989624,1.849033 -0.569734,2.656049 0.618521,1.188779 1.9276735,1.62841 3.0873665,1.036778 z m 19.760489,-1.330641 c 0.184717,-0.228286 0.715366,-2.355891 0.987841,-3.960699 0.302521,-1.781755 0.409323,-5.807625 0.206114,-7.769256 C 31.702373,17.868171 30.513651,14.2255 28.74974,11.738769 28.111848,10.839477 26.999058,9.7586893 26.448593,9.5037957 26.243888,9.4090107 26.112668,9.1795405 26.054248,8.8141968 25.939839,8.0987243 25.210105,7.3282735 24.423688,7.0926575 c -2.147267,-0.643337 -3.754592,2.0536308 -2.209603,3.7075465 0.855777,0.916113 2.308328,0.919878 3.21986,0.0083 0.404703,-0.404704 0.43778,-0.412943 0.773824,-0.192758 1.430225,0.93712 2.93413,3.376133 3.829599,6.210795 1.483556,4.696286 1.58238,11.064331 0.245287,15.806093 -0.285266,1.011646 -0.209957,1.420532 0.261634,1.420532 0.144134,0 0.327318,-0.08065 0.407074,-0.179214 z M 24.664287,26.53254 c 0.525092,-0.271535 0.922575,-1.100444 0.798525,-1.66524 -0.435938,-1.984811 -3.223622,-1.760937 -3.223622,0.258885 0,0.536877 0.07866,0.718827 0.487463,1.127634 0.549344,0.549344 1.226064,0.646689 1.937634,0.278721 z m 10.98212,-0.328901 c 0.520239,-0.551319 1.53159,-2.095013 2.047882,-3.125819 1.742334,-3.478663 1.039276,-6.642128 -1.79403,-8.072376 -1.487764,-0.751021 -4.09935,-1.130826 -4.495288,-0.653752 -0.369421,0.445127 0.01516,0.686417 1.386912,0.870164 2.40494,0.322141 3.774361,1.109429 4.450693,2.558727 0.369628,0.792067 0.439094,1.959711 0.183383,3.08248 -0.223514,0.981407 -1.172429,2.817842 -2.060662,3.988004 -0.787631,1.037627 -0.964656,1.511597 -0.616971,1.651891 0.359584,0.145096 0.533378,0.08718 0.898081,-0.299319 z M 11.294405,23.79365 c 0.04719,-0.12297 -0.146272,-0.719752 -0.42991,-1.326183 -2.1824515,-4.666195 0.283547,-7.658751 5.992231,-7.271738 2.740561,0.185793 2.580601,0.200783 2.632087,-0.246658 0.06562,-0.57026 -0.398392,-0.701504 -2.769412,-0.783319 -3.837311,-0.132412 -6.16532,0.845306 -7.2470445,3.043614 -0.309546,0.629064 -0.35122,0.903336 -0.348217,2.291671 0.0031,1.436157 0.04447,1.679573 0.462834,2.724052 0.252682,0.630833 0.5612615,1.292133 0.6857315,1.469555 0.261424,0.372639 0.893205,0.433859 1.0217,0.099 z"
     style="fill:#a0a0a0;stroke-width:0.143371" />
  <path
     id="path2569"
     d="m 9.3983745,34.155825 c -0.434972,-0.366004 -0.582647,-0.905213 -0.38045,-1.38914 0.181253,-0.4338 0.689275,-0.782107 1.1415335,-0.782652 0.691313,-8.33e-4 1.37472,0.834238 1.212306,1.481345 -0.03782,0.150668 -0.221175,0.426361 -0.407467,0.612654 -0.446273,0.446273 -1.0900045,0.478253 -1.5659225,0.07779 z"
     style="fill:#a0a0a0;stroke-width:0.101379" />
  <path
     id="path2571"
     d="m 36.91309,34.295048 c -0.111517,-0.06355 -0.283836,-0.207429 -0.382931,-0.31975 -0.603808,-0.684386 -0.127888,-1.834245 0.811324,-1.96022 0.780529,-0.104686 1.345735,0.437779 1.345735,1.291603 0,0.343257 -0.06345,0.484129 -0.344687,0.765375 -0.288019,0.288017 -0.417192,0.34418 -0.785686,0.341604 -0.242548,-0.0016 -0.532239,-0.05507 -0.643755,-0.118612 z"
     style="fill:#a0a0a0;stroke-width:0.101379" />
  <path
     id="path2575"
     d="M 23.16952,10.261649 C 22.772623,9.9941791 22.512331,9.4090435 22.612575,9.0096375 c 0.03781,-0.1506673 0.221176,-0.4263609 0.407467,-0.6126524 0.287942,-0.2879414 0.410133,-0.3387116 0.815192,-0.3387116 0.405059,0 0.52725,0.050768 0.815192,0.3387116 0.186291,0.1862915 0.369651,0.4619851 0.407466,0.6126524 0.163581,0.6517541 -0.521278,1.4817255 -1.222658,1.4817255 -0.178663,0 -0.478234,-0.103369 -0.665714,-0.229714 z"
     style="fill:#a0a0a0;stroke-width:0.101379" />
</svg>
