<?xml version="1.0" encoding="UTF-8" standalone="no"?>
<svg
   xmlns:rdf="http://www.w3.org/1999/02/22-rdf-syntax-ns#"
   xmlns:svg="http://www.w3.org/2000/svg"
   xmlns="http://www.w3.org/2000/svg"
   version="1.1"
   height="48"
   width="48">
  <path
     style="fill:#a0a0a0;fill-opacity:1;stroke:none;stroke-width:0.045845;stroke-opacity:1"
     d="M 4.107493,26.251024 C 4.1157049,14.73398 4.1350052,4.3807415 4.1503606,3.2438262 L 4.1782086,1.176704 6.2703584,1.146477 C 7.4210388,1.129841 8.7802776,1.116222 9.290881,1.116177 l 0.928381,-5.82e-5 v 5.5931781 5.5931901 h 7.290182 l 6.494098,-0.03439 -0.235791,0.582131 -6.36936,0.0022 h -7.123489 l -0.0269,0.744987 c -0.04208,1.165 -0.208147,19.699844 -0.177048,19.761058 1.911198,0.01916 3.804991,-0.0034 5.687086,-0.04174 -0.06305,0.156314 -0.206494,0.56522 -0.260408,0.695211 0,0 -0.526525,0.01 -2.245418,0.03012 -1.71889,0.02023 -3.188972,-0.0018 -3.208406,0.01741 -0.01944,0.01943 0.01504,2.797764 0.01504,6.46446 v 6.667057 l -2.983155,1.6e-5 -2.9831499,1.7e-5 z M 9.3482192,41.850056 V 40.726834 H 7.6977731 6.0473229 v 1.123222 1.123223 h 1.6504502 1.6504461 z m 0,-5.38746 V 35.31587 l -1.6389867,0.01206 -1.6389839,0.01206 -0.012307,1.076426 c -0.00678,0.592035 -0.00215,1.102645 0.010006,1.134681 0.017486,0.04562 0.3762964,0.05826 1.6513232,0.05826 H 9.3482252 Z M 9.4399152,30.9846 V 29.86138 H 7.7894666 6.1390159 v 1.12322 1.123226 h 1.6504507 1.6504481 z m 0.045832,-5.4098 V 24.451572 H 7.8353013 6.1848544 v 1.092661 c 0,0.600966 0.013784,1.10641 0.030576,1.123222 0.016823,0.01681 0.7595187,0.03057 1.650453,0.03057 H 9.485761 Z m 0.091697,-5.5015 V 18.950075 H 7.9269914 6.2765473 v 1.123225 1.123219 h 1.6504441 1.6504522 z m -0.04584,-5.088887 V 13.86119 H 7.8811549 6.2307072 v 1.123223 1.123221 H 7.8811549 9.5316036 Z M 9.4857509,10.124758 V 9.0015372 H 7.8352991 6.1848552 v 1.1232208 1.123221 H 7.8352991 9.48575 Z m 0,-5.3186939 V 3.6822662 L 7.8467671,3.6943571 6.2077798,3.706448 6.1955071,4.8182096 6.1832489,5.9299682 h 1.6512674 1.6512622 z"/>
  <path
     d="M 44.077391,26.306699 C 44.069118,14.789663 44.0499,4.4364215 44.034509,3.2995035 l -0.02784,-2.0671249 -2.092157,-0.030218 c -1.15068,-0.016673 -2.509919,-0.030264 -3.020529,-0.030291 l -0.928374,-6.18e-5 v 5.5931908 l -0.100501,5.6069654 -9.611842,-0.07577 0.189978,0.591136 9.477169,0.06454 0.01654,0.701456 c 0.0274,1.165632 0.158386,19.630588 0.127287,19.6918 -0.01776,0.03491 -3.46845,0.08035 -5.447737,0.03173 l -9.257576,-0.06411 -0.04703,0.279126 -0.04639,0.250556 9.403743,0.07391 c 0,0 5.411322,0.0095 5.430761,0.02887 0.01941,0.01942 0.02622,2.968159 0.02622,6.63486 v 6.666708 l 2.98316,2e-5 2.983148,2.6e-5 z m -5.240734,15.599037 v -1.123222 h 1.650453 1.650443 v 1.123222 1.123225 H 40.48711 38.836657 Z m 0,-5.387463 v -1.146725 l 1.638989,0.01206 1.638993,0.01206 0.01232,1.076432 c 0.0067,0.592035 0.0025,1.102642 -0.01,1.13468 -0.01749,0.04563 -0.376297,0.05827 -1.651325,0.05827 h -1.628986 z m -0.09169,-5.477998 v -1.123218 h 1.650453 1.650451 v 1.123218 1.123226 H 40.39542 38.744967 Z m -0.04586,-5.409803 v -1.123217 h 1.650457 1.650451 v 1.09265 c 0,0.600966 -0.01378,1.106414 -0.03056,1.123224 -0.01682,0.01683 -0.759515,0.03056 -1.650452,0.03056 h -1.619885 z m -0.09168,-5.501496 v -1.123218 h 1.650449 1.650448 V 20.128976 21.2522 H 40.25788 38.60743 Z m 0.04585,-5.088884 v -1.123219 h 1.650454 1.650456 v 1.123219 1.123224 h -1.650456 -1.650457 z m 0.04585,-4.859659 V 9.0572164 h 1.650452 1.650451 v 1.1232166 1.123224 h -1.650445 -1.650452 z m 0,-5.3186889 V 3.7379389 l 1.638992,0.012091 1.638987,0.012091 0.0123,1.1117661 0.01228,1.1117633 h -1.651272 -1.651263 z"
     style="fill:#a0a0a0;fill-opacity:1;stroke:none;stroke-width:0.045845;stroke-opacity:1" />
  <path
     d="m 19.826594,40.894318 c -2.365858,-0.0143 -7.537137,0.03176 -7.537137,-0.08211 0,-0.105351 0.191746,-0.812925 0.316067,-1.122168 C 16.732774,28.795374 20.85388,18.63143 24.74673,8.5248856 l 0.56055,-1.4572778 h 4.301716 c 2.816613,0 4.25881,0.069396 4.177474,0.2010044 -1.44484,0.8061313 -3.247241,1.3529636 -4.533436,2.4902127 -0.536547,0.6260001 -0.989391,1.3280391 -0.994193,2.0323871 -0.0078,1.899183 2.272417,3.008959 2.412057,5.063331 0,0.539569 -0.809126,1.455667 -1.771922,2.006186 -1.781085,1.115477 -3.848444,2.481642 -3.856203,4.488241 0.08551,1.272121 0.836097,2.462815 1.608034,3.463389 0.879218,1.238058 1.512989,2.549653 0.538494,3.647011 -1.225589,1.22555 -2.917236,1.943451 -3.923865,3.382994 -1.347005,2.277147 -0.06644,3.691549 1.475829,5.279687 0.939699,0.956776 1.708535,1.779059 1.708535,1.827466 0,0.04827 -0.203505,0.07261 -0.452254,0.05386 -2.418008,-0.109547 -2.984631,-0.09811 -6.170952,-0.109029 z"
     style="fill:#a0a0a0;stroke-width:0.201" />
</svg>
