<?xml version="1.0" encoding="UTF-8" standalone="no"?>
<svg
   xmlns:rdf="http://www.w3.org/1999/02/22-rdf-syntax-ns#"
   xmlns:svg="http://www.w3.org/2000/svg"
   xmlns="http://www.w3.org/2000/svg"
   height="48"
   width="48">
  <path
     d="m 21.673075,45.963057 c -3.01476,-0.427601 -4.97691,-0.983541 -7.30514,-2.069781 -3.758691,-1.753629 -7.2467906,-4.916058 -9.5032606,-8.615975 -1.60328,-2.628889 -2.68396,-5.787703 -3.06934,-8.971602 -0.13774,-1.137976 -0.13774,-3.981095 0,-5.119072 1.12974,-9.333584 7.83646,-16.9206736 16.9118906,-19.1318496 1.70383,-0.415128 3.25777,-0.589294 5.25779,-0.589294 2.64416,0 4.59562,0.304604 6.99773,1.092278 5.00536,1.641306 9.32034,5.082184 12.11054,9.6572646 2.93727,4.816243 3.91194,10.865371 2.65666,16.488196 -0.90141,4.037726 -2.99308,7.804483 -5.99847,10.802251 -3.36467,3.356138 -7.26373,5.374783 -12.10993,6.269611 -0.90162,0.166484 -5.15284,0.30082 -5.94847,0.187973 z m -9.63753,-10.221125 c 0.7472,-0.263626 1.53715,-0.888923 2.84016,-2.248158 l 1.291,-1.346698 h 7.80655 7.80656 l 1.46908,1.49186 c 1.58575,1.61034 2.24995,2.065551 3.3115,2.269527 1.21171,0.232829 2.96912,-0.370792 3.95768,-1.359358 0.72787,-0.727869 1.06328,-1.4989 1.12002,-2.574649 l 0.0449,-0.850959 -0.61262,-0.118172 c -2.06468,-0.398273 -4.85071,-1.658849 -6.04837,-2.736663 -0.20812,-0.18729 -0.24727,-0.188445 -0.88169,-0.02593 -1.89079,0.484398 -3.67645,-0.788269 -3.83243,-2.731441 -0.0572,-0.713231 0.0759,-1.25055 0.45675,-1.843272 l 0.25138,-0.391201 -0.24875,-0.60021 c -0.71255,-1.71931 -1.21505,-4.042313 -1.21505,-5.617001 0,-0.311533 -0.0352,-0.564935 -0.0783,-0.563115 -0.043,0.0018 -0.54788,0.07104 -1.12186,0.153832 -0.57398,0.08279 -1.67275,0.182713 -2.44171,0.222056 l -1.39813,0.07153 0.0738,-0.651931 c 0.22555,-1.99357 1.29989,-3.597824 3.12203,-4.661985 0.35423,-0.206874 0.65907,-0.390257 0.67742,-0.407519 0.0297,-0.02794 -0.37011,-0.878262 -0.46019,-0.978698 -0.0941,-0.104985 -1.59957,0.916739 -2.2377,1.518717 -1.27048,1.198512 -1.95685,2.522421 -2.19674,4.237214 l -0.12743,0.910909 h -0.70364 c -1.4664,0 -3.83643,-0.314878 -6.03738,-0.802118 -1.11644,-0.247155 -1.25773,-0.25616 -2.30261,-0.146756 -2.07125,0.216874 -3.543191,0.773796 -4.5785206,1.732327 -1.07425,0.994564 -1.22935,1.429818 -2.25483,6.327735 -0.87224,4.166009 -1.13542,5.853386 -1.1452,7.342558 -0.009,1.308621 0.002,1.380691 0.3132,2.035 0.41484,0.873615 1.14543,1.589974 2.07786,2.037398 1.19214,0.572036 2.2657506,0.671216 3.3032906,0.30515 z m 29.36475,-6.8039 c -0.21305,-1.753901 -1.81906,-9.306505 -2.09504,-9.852384 -0.92308,-1.825782 -2.72332,-2.813563 -5.69479,-3.124694 -0.98921,-0.103576 -1.22154,-0.09548 -1.87822,0.06545 l -0.74938,0.183645 0.0663,1.21126 c 0.075,1.368972 0.33083,2.641349 0.81577,4.056512 0.30179,0.880709 0.35063,0.95969 0.54856,0.887053 0.1195,-0.04386 0.56949,-0.07751 0.99997,-0.07479 0.92603,0.0059 1.63007,0.310752 2.18991,0.948368 0.80829,0.920601 1.02208,2.24392 0.53723,3.325407 l -0.23393,0.521798 0.29269,0.240032 c 0.84489,0.692889 2.81251,1.6426 4.14611,2.001195 1.15559,0.310736 1.14046,0.316313 1.0548,-0.388853 z m -7.67373,-1.695837 c 0.11479,-0.114797 0.20872,-0.268712 0.20872,-0.342036 0,-0.256635 -0.32645,-0.597197 -0.57244,-0.597197 -0.5417,0 -0.77896,0.68054 -0.34358,0.985495 0.30654,0.214707 0.45611,0.204923 0.7073,-0.04626 z m -1.56539,-1.565389 c 0.25119,-0.251181 0.26097,-0.400754 0.0463,-0.707291 -0.19237,-0.274648 -0.52889,-0.299728 -0.79465,-0.05923 -0.25947,0.234822 -0.24021,0.615745 0.0411,0.812782 0.30653,0.214703 0.4561,0.20492 0.70729,-0.04627 z m 3.13077,0 c 0.25119,-0.251181 0.26097,-0.400754 0.0463,-0.707291 -0.30495,-0.435387 -0.98549,-0.198128 -0.98549,0.34357 0,0.245996 0.34056,0.57244 0.5972,0.57244 0.0733,0 0.22724,-0.09392 0.34203,-0.208719 z m -1.56538,-1.565384 c 0.25118,-0.251186 0.26096,-0.400759 0.0463,-0.707295 -0.19237,-0.274649 -0.5289,-0.29973 -0.79465,-0.05922 -0.25947,0.234821 -0.24021,0.615744 0.0411,0.812782 0.30654,0.214703 0.45611,0.204919 0.7073,-0.04626 z"
     style="fill:#a0a0a0;stroke:none;stroke-width:0.104359" />
  <path
     d="M 12.925421,26.376123 V 25.59343 h -0.78269 -0.78269 v -0.469616 -0.469616 h 0.78269 0.78269 v -0.782696 -0.782691 h 0.5218 0.5218 v 0.782691 0.782696 h 0.73051 0.73051 v 0.469616 0.469616 h -0.73051 -0.73051 v 0.782693 0.782696 h -0.5218 -0.5218 z"
     style="fill:#a0a0a0;stroke:none;stroke-width:0.104359" />
  <path
     d="m 21.411261,27.158703 c -0.34472,-0.172256 -0.70407,-0.398625 -0.79857,-0.503038 -0.16112,-0.178037 -0.15214,-0.208683 0.14427,-0.492664 0.26708,-0.255879 0.34379,-0.282706 0.4949,-0.173067 0.87688,0.636216 1.84057,0.714418 2.71593,0.220392 l 0.57115,-0.322336 0.32059,0.32059 c 0.31426,0.314259 0.31654,0.323823 0.11562,0.484474 -0.11273,0.09014 -0.48673,0.30221 -0.83111,0.471278 -0.89299,0.438391 -1.84816,0.436422 -2.73278,-0.0056 z"
     style="fill:#a0a0a0;stroke:none;stroke-width:0.104359" />
</svg>
