<?xml version="1.0" encoding="UTF-8" standalone="no"?>
<svg
   xmlns:rdf="http://www.w3.org/1999/02/22-rdf-syntax-ns#"
   xmlns:svg="http://www.w3.org/2000/svg"
   xmlns="http://www.w3.org/2000/svg"
   height="48"
   width="48">
  <g
     style="fill:#a0a0a0;fill-opacity:1"
     transform="matrix(0.19592983,0,0,-0.19592983,24.869153,25.660572)">
    <path
       d="M 0,0 -19.833,-57.952 -62.599,67.654 H -98.522 V -92.453 h 21.734 V 37.635 L -32.7,-92.453 h 21.169 l 27.767,81.932 C 10.307,-7.801 4.847,-4.246 0,0"
       style="fill:#a0a0a0;fill-opacity:1;fill-rule:nonzero;stroke:none" />
  </g>
  <g
     style="fill:#a0a0a0;fill-opacity:1"
     transform="matrix(0.19592983,0,0,-0.19592983,44.519881,15.455134)">
    <path
       d="m 0,0 c 0,-29.194 -25.303,-52.857 -56.52,-52.857 -31.216,0 -56.519,23.663 -56.519,52.857 0,29.194 25.303,52.857 56.519,52.857 C -25.303,52.857 0,29.194 0,0 m -118.377,0 c 0,-34.166 27.693,-61.857 61.857,-61.857 34.165,0 61.858,27.691 61.858,61.857 0,34.164 -27.693,61.855 -61.858,61.855 -34.164,0 -61.857,-27.691 -61.857,-61.855"
       style="fill:#a0a0a0;fill-opacity:1;fill-rule:nonzero;stroke:none" />
  </g>
  <g
     style="fill:#a0a0a0;fill-opacity:1"
     transform="matrix(0.19592983,0,0,-0.19592983,31.577365,16.155297)">
    <path
       d="m 0,0 v -41.297 c -4.614,0.775 -9.004,2.076 -13.086,3.832 z m 29.787,3.459 c 0,21.194 3.114,25.225 20.566,25.36 -0.386,0.579 -0.805,1.134 -1.215,1.695 0.028,-0.028 0.058,-0.054 0.086,-0.082 -0.122,0.168 -0.255,0.326 -0.379,0.492 -0.29,0.389 -0.586,0.772 -0.888,1.152 -0.357,0.45 -0.724,0.892 -1.097,1.329 -0.277,0.325 -0.553,0.651 -0.839,0.969 -0.47,0.522 -0.956,1.029 -1.448,1.531 -0.213,0.217 -0.418,0.44 -0.635,0.653 -8.753,8.609 -20.75,13.928 -33.998,13.928 -16.16,0 -30.463,-7.905 -39.283,-20.053 9.44,9.555 23.53,15.626 39.283,15.626 10.552,0 20.349,-2.734 28.51,-7.405 H -9.642 l -21.513,-62.485 c 0.634,-1.011 1.318,-1.962 2.024,-2.884 -0.069,0.069 -0.143,0.134 -0.212,0.204 8.82,-12.149 23.123,-20.053 39.283,-20.053 16.161,0 30.465,7.905 39.284,20.054 -5.223,-5.286 -11.873,-9.499 -19.437,-12.215 z"
       style="fill:#a0a0a0;fill-opacity:1;fill-rule:nonzero;stroke:none" />
  </g>
  <g
     style="fill:#a0a0a0;fill-opacity:1"
     transform="matrix(0.19592983,0,0,-0.19592983,32.112158,31.2373)">
    <path
       d="M 0,0 V 6.361 C 0,7.465 0.896,8.197 2,7.994 3.104,7.792 4,6.731 4,5.627 V -0.26 c 1.059,-0.043 2.115,-0.07 3.164,-0.07 3.894,0 7.861,0.311 11.826,0.893 v 12.333 c -3.826,-0.678 -7.758,-1.052 -11.779,-1.052 -3.884,0 -7.685,0.349 -11.388,0.982 V 0.49 C -2.783,0.294 -1.39,0.125 0,0"
       style="fill:#a0a0a0;fill-opacity:1;fill-rule:nonzero;stroke:none" />
  </g>
  <g
     style="fill:#a0a0a0;fill-opacity:1"
     transform="matrix(0.19592983,0,0,-0.19592983,33.515816,31.889669)">
    <path
       d="m 0,0 c -1.049,0 -2.105,0.028 -3.164,0.069 v -55.768 c 0,-1.104 -0.896,-1.835 -2,-1.633 -1.105,0.203 -2,1.263 -2,2.367 V 0.313 c -1.39,0.121 -2.783,0.285 -4.177,0.474 v -60.255 c 0,0 3.861,-2.493 11.388,-2.493 7.527,0 11.779,2.564 11.779,2.564 V 0.858 C 7.862,0.296 3.896,0 0,0"
       style="fill:#a0a0a0;fill-opacity:1;fill-rule:nonzero;stroke:none" />
  </g>
  <path
     style="fill:#a0a0a0;stroke-width:0.068242;fill-opacity:1"
     d="M 31.913702,25.096235 C 29.482917,24.668393 27.2628,23.276577 25.847576,21.293306 l -0.322607,-0.452082 0.215194,-0.654737 c 0.118353,-0.360106 1.056263,-3.096102 2.084243,-6.079991 L 29.693455,8.681242 34.410344,8.66371 c 2.594286,-0.00963 4.716878,-0.043223 4.716878,-0.074633 0,-0.081513 -1.3706,-0.7155099 -1.986766,-0.9190132 C 33.804859,6.5684086 29.827136,7.1210187 27.125207,9.061447 26.8109,9.2871676 26.541285,9.4593881 26.526066,9.4441596 c -0.05569,-0.055692 1.125347,-1.1144367 1.637922,-1.4683304 1.069288,-0.7382503 2.497456,-1.3177822 3.792768,-1.5390614 0.830685,-0.1419055 2.30987,-0.1428029 3.149212,-0.00189 1.40614,0.2360321 2.9201,0.8944958 4.099799,1.7831127 0.659678,0.4969032 1.538371,1.3746219 1.948527,1.9463535 l 0.218648,0.304789 -0.764589,0.04229 c -2.028958,0.112215 -2.765622,0.710363 -3.095515,2.513469 -0.08518,0.46563 -0.11058,1.502423 -0.138873,5.670909 -0.01906,2.805608 -0.01668,5.101107 0.005,5.101107 0.02194,0 0.31666,-0.119358 0.655032,-0.26524 0.781455,-0.336902 1.503645,-0.750004 2.114372,-1.209442 0.263986,-0.198599 0.479984,-0.334673 0.479984,-0.302387 0,0.122299 -1.219517,1.193497 -1.804264,1.584829 -0.820142,0.548867 -1.404045,0.834307 -2.350234,1.148919 -1.417924,0.471464 -3.107339,0.598409 -4.560346,0.342667 z m -0.293113,-4.895712 c 0,-2.402687 -0.02512,-4.047463 -0.06115,-4.009227 -0.03365,0.03566 -0.451702,1.185705 -0.929065,2.555669 -0.477363,1.369962 -1.046762,3.002718 -1.265331,3.628344 l -0.397399,1.137506 0.456377,0.18404 c 0.453071,0.182709 1.848241,0.568674 2.077125,0.574621 0.112436,0.0029 0.119425,-0.235212 0.119425,-4.070953 z"/>
</svg>
