<?xml version="1.0" encoding="UTF-8" standalone="no"?>
<svg
   xmlns:dc="http://purl.org/dc/elements/1.1/"
   xmlns:cc="http://creativecommons.org/ns#"
   xmlns:rdf="http://www.w3.org/1999/02/22-rdf-syntax-ns#"
   xmlns:svg="http://www.w3.org/2000/svg"
   xmlns="http://www.w3.org/2000/svg"
   xmlns:sodipodi="http://sodipodi.sourceforge.net/DTD/sodipodi-0.dtd"
   xmlns:inkscape="http://www.inkscape.org/namespaces/inkscape"
   width="48"
   height="48"
   version="1.1"
   id="svg1982"
   sodipodi:docname="postman.svg"
   inkscape:version="1.0 (4035a4fb49, 2020-05-01)">
  <metadata
     id="metadata1986">
    <rdf:RDF>
      <cc:Work
         rdf:about="">
        <dc:format>image/svg+xml</dc:format>
        <dc:type
           rdf:resource="http://purl.org/dc/dcmitype/StillImage" />
        <dc:title />
      </cc:Work>
    </rdf:RDF>
  </metadata>
  <sodipodi:namedview
     showguides="false"
     inkscape:document-rotation="0"
     pagecolor="#ffffff"
     bordercolor="#666666"
     borderopacity="1"
     objecttolerance="10"
     gridtolerance="10"
     guidetolerance="10"
     inkscape:pageopacity="0"
     inkscape:pageshadow="2"
     inkscape:window-width="1689"
     inkscape:window-height="966"
     id="namedview1984"
     showgrid="false"
     inkscape:zoom="3.828125"
     inkscape:cx="68.953922"
     inkscape:cy="-11.905591"
     inkscape:window-x="0"
     inkscape:window-y="26"
     inkscape:window-maximized="0"
     inkscape:current-layer="svg1982" />
  <defs
     id="acyl-settings">
    <linearGradient
       id="acyl-gradient"
       x1="1.9999998"
       x2="1.9999998"
       y1="2.0000004"
       y2="46.000003"
       gradientUnits="userSpaceOnUse">
      <stop
         offset="100%"
         style="stop-color:#A0A0A0;stop-opacity:1.000000"
         id="stop1973" />
    </linearGradient>
    <g
       id="acyl-filter" />
    <g
       id="acyl-drawing">
      <path
         d="M 24.889828,2.0004778 C 21.392877,2.1068035 18.046952,5.0084053 14.950578,9.0479895 11.854203,13.087573 9.0061389,18.367088 6.7585732,23.658684 4.5110076,28.95028 2.8720095,34.232911 2.2615639,38.298027 c -0.3052228,2.032559 -0.3674238,3.769699 -0.057287,5.128068 0.1550685,0.679184 0.3985549,1.273095 0.8306577,1.747553 0.4321029,0.474459 1.078571,0.773139 1.7472457,0.802156 6.4913857,0.32593 13.6325937,-2.691283 19.3342767,-6.016168 2.850841,-1.662443 5.345467,-3.413974 7.189486,-4.89888 0.92201,-0.742453 1.687098,-1.39911 2.262826,-1.976741 0.575728,-0.577631 0.946806,-0.99485 1.174379,-1.547015 0.09947,-0.242759 0.08264,-0.517663 -0.04569,-0.746473 -0.128334,-0.22881 -0.354122,-0.386471 -0.613105,-0.428112 -0.667852,-0.112531 -1.152614,0.08443 -1.919106,0.315132 -0.766492,0.230701 -1.707127,0.56296 -2.778407,0.974046 -2.142559,0.822174 -4.787026,1.938723 -7.47592,3.036733 -2.688894,1.09801 -5.42756,2.169505 -7.64778,2.922139 -1.11011,0.376318 -2.08659,0.688623 -2.864337,0.859453 -0.777748,0.17083 -1.366946,0.172216 -1.4894562,0.143242 -0.00955,-1.6e-4 -0.019096,-1.6e-4 -0.028643,0 -0.038747,-0.0078 -0.00278,0.0136 -0.057287,-0.08595 -0.054505,-0.09954 -0.1513111,-0.343299 -0.1718602,-0.716211 -0.041098,-0.745823 0.1323678,-1.94155 0.4869374,-3.351865 0.709139,-2.820631 2.146385,-6.547784 3.924142,-10.198838 1.777757,-3.651054 3.898836,-7.223063 5.900535,-9.711815 1.00085,-1.244376 1.969412,-2.208992 2.80705,-2.778897 0.837639,-0.569905 1.47019,-0.697935 1.890463,-0.572968 0.03815,0.0026 0.07643,0.0026 0.114573,0 0.531555,0.08715 1.332183,0.58416 2.234183,1.489717 0.902001,0.905558 1.905742,2.196376 2.921624,3.724295 2.031763,3.055838 4.174489,7.081258 6.158325,11.058291 1.983836,3.977033 3.797304,7.905656 5.241737,10.829103 0.722216,1.461724 1.344508,2.664292 1.861819,3.523756 0.258656,0.429732 0.502896,0.784488 0.744728,1.059992 0.120915,0.137751 0.24166,0.255118 0.429651,0.372429 0.133536,0.08333 0.382175,0.08489 0.630154,0.08595 l 0,0.08595 c 0.06056,0 0.109093,-0.04291 0.17186,-0.0573 0.03565,-0.0077 0.04938,0.01232 0.08593,0 l -0.02864,-0.0573 c 0.159316,-0.04986 0.330798,-0.07313 0.42965,-0.171891 0.153527,-0.153386 0.218028,-0.310981 0.257791,-0.429726 0.07953,-0.237488 0.0862,-0.40903 0.08593,-0.601617 -5.33e-4,-0.385174 -0.07246,-0.812695 -0.17186,-1.375124 -0.198805,-1.124857 -0.561797,-2.694452 -1.088455,-4.555099 -1.053315,-3.721292 -2.711059,-8.641573 -4.726156,-13.608 C 37.998431,17.603617 35.632127,12.614144 33.110475,8.7901535 31.849649,6.8781578 30.559494,5.2562024 29.214977,4.0631641 27.87046,2.8701259 26.451139,2.0708728 24.947114,2.0004778 c -0.01909,-6.368e-4 -0.0382,-6.368e-4 -0.05729,0 l 0,0 z"
         id="path-main" />
    </g>
  </defs>
  <path
     id="path1013"
     d=""
     style="fill:#00ff00;stroke-width:0.130612" />
  <path
     style="fill:#a0a0a0;fill-opacity:1;stroke-width:0.275994"
     d="M 19.685855,45.687806 C 16.270829,44.970123 12.499777,43.182285 9.8145397,41.007861 6.4645035,38.2951 3.5167231,33.64314 2.3786795,29.273159 1.6259714,26.38283 1.6879653,21.140724 2.5090152,18.252196 4.3232344,11.869601 8.7907157,6.6306861 14.741284,3.9076865 17.838328,2.4904672 20.156644,2.00234 23.805025,1.9992864 c 3.981429,-0.0033 6.157911,0.5039694 9.830008,2.2912133 7.812333,3.8023252 12.734691,12.2700523 12.172943,20.9406063 -0.208296,3.215109 -0.810623,5.460591 -2.268784,8.457968 -2.683527,5.51626 -7.414033,9.5241 -13.524281,11.45823 -2.177252,0.689184 -8.137482,1.001071 -10.329056,0.540502 z m 9.106978,-6.583205 c 2.130414,-0.678245 4.598748,-2.214982 6.299261,-3.921783 6.239937,-6.263 6.203153,-16.199057 -0.08316,-22.462924 C 31.813961,9.5363219 28.300616,8.1124569 23.663697,8.1219629 17.85122,8.1338729 12.704378,11.177546 9.8826167,16.271632 c -2.5634154,4.6277 -2.6640005,9.754513 -0.289477,14.754585 1.1460263,2.413207 4.3557753,5.790826 6.6746143,7.023699 3.558395,1.891912 8.569797,2.313905 12.525057,1.054685 z"
     id="path2020" />
  <path
     style="fill:#a0a0a0;fill-opacity:1;stroke-width:0.275994"
     d="m 30.28297,29.801613 c -2.727989,-2.520505 -5.249542,-4.863351 -5.603467,-5.206325 l -0.6435,-0.623591 5.675418,-5.305306 5.675407,-5.305307 0.683859,0.780175 c 0.89815,1.024634 2.167638,3.438636 2.805121,5.334088 0.779669,2.318202 0.719037,6.715348 -0.128238,9.301028 -0.624855,1.906883 -2.629099,5.343314 -3.220701,5.522147 -0.156156,0.0472 -2.51591,-1.976405 -5.243899,-4.496909 z m 5.568454,-2.483687 c 0.720082,-1.098979 0.857439,-4.807096 0.229647,-6.199297 -0.37312,-0.827441 -0.650892,-1.091293 -1.14884,-1.091293 -0.790065,0 -1.125279,0.704527 -0.676853,1.422567 0.604352,0.967734 0.689173,2.882667 0.194645,4.394596 -0.256531,0.784305 -0.400741,1.597161 -0.320474,1.806347 0.238876,0.622481 1.220187,0.432746 1.721875,-0.33292 z"
     id="path2022" />
</svg>
