<?xml version="1.0" encoding="UTF-8" standalone="no"?>
<svg
   xmlns:dc="http://purl.org/dc/elements/1.1/"
   xmlns:cc="http://creativecommons.org/ns#"
   xmlns:rdf="http://www.w3.org/1999/02/22-rdf-syntax-ns#"
   xmlns:svg="http://www.w3.org/2000/svg"
   xmlns="http://www.w3.org/2000/svg"
   id="svg2092"
   version="1.1"
   height="48"
   width="48">
  <metadata
     id="metadata2096">
    <rdf:RDF>
      <cc:Work
         rdf:about="">
        <dc:format>image/svg+xml</dc:format>
        <dc:type
           rdf:resource="http://purl.org/dc/dcmitype/StillImage" />
        <dc:title></dc:title>
      </cc:Work>
    </rdf:RDF>
  </metadata>
  <defs
     id="acyl-settings">
    <linearGradient
       y2="100%"
       y1="0%"
       x2="0%"
       x1="0%"
       id="acyl-gradient">
      <stop
         id="stop2083"
         style="stop-color:#A0A0A0;stop-opacity:1.000000"
         offset="100%" />
    </linearGradient>
    <g
       id="acyl-filter" />
    <g
       id="acyl-drawing">
      <path
         id="path-main"
         d="M 24.889828,2.0004778 C 21.392877,2.1068035 18.046952,5.0084053 14.950578,9.0479895 11.854203,13.087573 9.0061389,18.367088 6.7585732,23.658684 4.5110076,28.95028 2.8720095,34.232911 2.2615639,38.298027 c -0.3052228,2.032559 -0.3674238,3.769699 -0.057287,5.128068 0.1550685,0.679184 0.3985549,1.273095 0.8306577,1.747553 0.4321029,0.474459 1.078571,0.773139 1.7472457,0.802156 6.4913857,0.32593 13.6325937,-2.691283 19.3342767,-6.016168 2.850841,-1.662443 5.345467,-3.413974 7.189486,-4.89888 0.92201,-0.742453 1.687098,-1.39911 2.262826,-1.976741 0.575728,-0.577631 0.946806,-0.99485 1.174379,-1.547015 0.09947,-0.242759 0.08264,-0.517663 -0.04569,-0.746473 -0.128334,-0.22881 -0.354122,-0.386471 -0.613105,-0.428112 -0.667852,-0.112531 -1.152614,0.08443 -1.919106,0.315132 -0.766492,0.230701 -1.707127,0.56296 -2.778407,0.974046 -2.142559,0.822174 -4.787026,1.938723 -7.47592,3.036733 -2.688894,1.09801 -5.42756,2.169505 -7.64778,2.922139 -1.11011,0.376318 -2.08659,0.688623 -2.864337,0.859453 -0.777748,0.17083 -1.366946,0.172216 -1.4894562,0.143242 -0.00955,-1.6e-4 -0.019096,-1.6e-4 -0.028643,0 -0.038747,-0.0078 -0.00278,0.0136 -0.057287,-0.08595 -0.054505,-0.09954 -0.1513111,-0.343299 -0.1718602,-0.716211 -0.041098,-0.745823 0.1323678,-1.94155 0.4869374,-3.351865 0.709139,-2.820631 2.146385,-6.547784 3.924142,-10.198838 1.777757,-3.651054 3.898836,-7.223063 5.900535,-9.711815 1.00085,-1.244376 1.969412,-2.208992 2.80705,-2.778897 0.837639,-0.569905 1.47019,-0.697935 1.890463,-0.572968 0.03815,0.0026 0.07643,0.0026 0.114573,0 0.531555,0.08715 1.332183,0.58416 2.234183,1.489717 0.902001,0.905558 1.905742,2.196376 2.921624,3.724295 2.031763,3.055838 4.174489,7.081258 6.158325,11.058291 1.983836,3.977033 3.797304,7.905656 5.241737,10.829103 0.722216,1.461724 1.344508,2.664292 1.861819,3.523756 0.258656,0.429732 0.502896,0.784488 0.744728,1.059992 0.120915,0.137751 0.24166,0.255118 0.429651,0.372429 0.133536,0.08333 0.382175,0.08489 0.630154,0.08595 l 0,0.08595 c 0.06056,0 0.109093,-0.04291 0.17186,-0.0573 0.03565,-0.0077 0.04938,0.01232 0.08593,0 l -0.02864,-0.0573 c 0.159316,-0.04986 0.330798,-0.07313 0.42965,-0.171891 0.153527,-0.153386 0.218028,-0.310981 0.257791,-0.429726 0.07953,-0.237488 0.0862,-0.40903 0.08593,-0.601617 -5.33e-4,-0.385174 -0.07246,-0.812695 -0.17186,-1.375124 -0.198805,-1.124857 -0.561797,-2.694452 -1.088455,-4.555099 -1.053315,-3.721292 -2.711059,-8.641573 -4.726156,-13.608 C 37.998431,17.603617 35.632127,12.614144 33.110475,8.7901535 31.849649,6.8781578 30.559494,5.2562024 29.214977,4.0631641 27.87046,2.8701259 26.451139,2.0708728 24.947114,2.0004778 c -0.01909,-6.368e-4 -0.0382,-6.368e-4 -0.05729,0 l 0,0 z" />
    </g>
  </defs>
  <path
     id="path2098"
     d="m 4.7756199,43.477516 v -0.915331 h 2.3138469 2.3138461 l 5.7353701,-8.077801 c 3.154455,-4.442791 5.882101,-8.283618 6.061438,-8.535175 l 0.326066,-0.457372 v 1.565389 1.565389 l -4.926784,6.946901 -4.926784,6.946902 3.004588,0.02411 3.004588,0.02412 v 0.914096 0.914098 H 11.228708 4.7756199 Z"
     style="fill:#a0a0a0;fill-opacity:1;stroke-width:0.09153314" />
  <path
     id="path2100"
     d="m 29.001394,44.331825 c -0.03356,-0.03356 -0.06102,-0.44546 -0.06102,-0.915331 v -0.854309 h 2.791762 c 1.535469,0 2.791761,-0.02241 2.791761,-0.0498 0,-0.02739 -1.50265,-2.220756 -3.339224,-4.874141 l -3.339223,-4.824334 0.0012,-4.210525 c 9.05e-4,-3.329599 0.0245,-4.179701 0.11268,-4.063196 0.06133,0.08103 2.891825,4.168716 6.289993,9.083744 l 6.178488,8.936414 2.173912,9.07e-4 2.173913,9.06e-4 v 0.915332 0.915331 H 36.91904 c -4.321127,0 -7.884056,-0.02746 -7.917618,-0.06102 z"
     style="fill:#a0a0a0;fill-opacity:1;stroke-width:0.09153314" />
  <path
     id="path2102"
     d="m 27.841974,19.007887 v -1.531421 l 2.219679,-3.149813 2.219679,-3.149812 1.132489,-0.0053 c 0.893207,-0.0042 1.113604,0.01891 1.043107,0.109153 -0.04915,0.06293 -1.522155,2.132722 -3.273324,4.599541 -1.75117,2.466818 -3.219424,4.524255 -3.262788,4.57208 -0.04443,0.04899 -0.07885,-0.581574 -0.07885,-1.444464 z"
     style="fill:#a0a0a0;fill-opacity:1;stroke:none;stroke-width:0.09153314" />
  <path
     id="path2104"
     d="M 35.713825,6.3608229 35.99722,5.9489237 H 32.972229 29.947237 V 5.0335921 4.1182606 h 6.40732 6.407321 v 0.9153315 0.9153316 l -2.265446,2.014e-4 -2.265445,2.013e-4 -0.274599,0.4096877 -0.2746,0.4096876 -1.125678,0.00201 -1.125678,0.00201 z"
     style="fill:#a0a0a0;fill-opacity:1;stroke:none;stroke-width:0.09153314" />
  <path
     id="path2106"
     d="M 9.5364781,6.3624719 9.2542188,5.9522215 7.0835697,5.9276898 4.9129197,5.9031572 4.8867234,5.010709 4.8605272,4.1182607 h 7.9209318 7.920932 v 0.9153315 0.9153316 h -2.745994 c -1.510297,0 -2.745995,0.024534 -2.745995,0.05452 0,0.029985 0.07563,0.1638531 0.168058,0.2974827 0.09243,0.1336295 0.197838,0.2944503 0.234235,0.3573794 0.05236,0.090529 -0.545564,0.1144163 -2.863889,0.1144163 H 9.8187409 Z"
     style="fill:#a0a0a0;fill-opacity:1;stroke:none;stroke-width:0.09153314" />
  <path
     id="path2108"
     d="m 17.188199,17.442253 c -2.346371,-3.394913 -4.266128,-6.195828 -4.266128,-6.224255 0,-0.02843 1.309962,-0.05169 2.911027,-0.05169 h 2.911027 l 1.39103,2.029432 1.391032,2.029434 v 4.19482 c 0,2.307152 -0.01616,4.194822 -0.03593,4.194822 -0.01976,0 -1.955688,-2.777656 -4.302058,-6.172569 z"
     style="fill:#a0a0a0;fill-opacity:1;stroke:none;stroke-width:0.09153314" />
  <path
     id="path2110"
     d="M 22.258453,25.399719 V 10.617114 H 14.890033 7.5216148 V 9.0152844 7.4134541 H 24.68408 41.846547 v 1.6018303 1.6018296 h -7.322652 -7.322652 v 14.782605 14.782604 h -2.471395 -2.471395 z"
     style="fill:#a0a0a0;fill-opacity:1;stroke:none;stroke-width:0.09153314" />
</svg>
